HIERARCHY
ROOT hip
{
	OFFSET 0.000000 0.000000 0.000000 
	CHANNELS 6 Xposition Yposition Zposition Xrotation Zrotation Yrotation
	JOINT abdomen
	{
		OFFSET 0.000000 3.402643 0.000000 
		CHANNELS 3 Xrotation Zrotation Yrotation
		JOINT chest
		{
			OFFSET 0.000000 8.438565 -0.680529 
			CHANNELS 3 Xrotation Zrotation Yrotation
			JOINT neck
			{
				OFFSET 0.000000 10.207942 -0.272212 
				CHANNELS 3 Xrotation Zrotation Yrotation
				JOINT head
				{
					OFFSET 0.000000 3.130431 0.000000 
					CHANNELS 3 Xrotation Zrotation Yrotation
					End Site
					{
						OFFSET 0.000000 3.130435 0.000000 
					}
				}
			}
			JOINT lCollar
			{
				OFFSET 3.470700 6.669187 -0.816635 
				CHANNELS 3 Yrotation Zrotation Xrotation
				JOINT lShldr
				{
					OFFSET 3.198488 0.000000 0.000000 
					CHANNELS 3 Zrotation Yrotation Xrotation
					JOINT lForeArm
					{
						OFFSET 10.139888 0.000000 0.000000 
						CHANNELS 3 Yrotation Zrotation Xrotation
						JOINT lHand
						{
							OFFSET 8.370511 0.000000 0.000000 
							CHANNELS 3 Zrotation Yrotation Xrotation
							End Site
							{
								OFFSET 4.083176 0.000000 0.000000 
							}
						}
					}
				}
			}
			JOINT rCollar
			{
				OFFSET -3.470700 6.669187 -0.816635 
				CHANNELS 3 Yrotation Zrotation Xrotation
				JOINT rShldr
				{
					OFFSET -3.198488 0.000000 0.000000 
					CHANNELS 3 Zrotation Yrotation Xrotation
					JOINT rForeArm
					{
						OFFSET -10.139888 0.000000 0.000000 
						CHANNELS 3 Yrotation Zrotation Xrotation
						JOINT rHand
						{
							OFFSET -8.370511 0.000000 0.000000 
							CHANNELS 3 Zrotation Yrotation Xrotation
							End Site
							{
								OFFSET -4.083176 0.000000 0.000000 
							}
						}
					}
				}
			}
		}
	}
	JOINT lThigh
	{
		OFFSET 5.308129 -1.633274 1.361059 
		CHANNELS 3 Xrotation Zrotation Yrotation
		JOINT lShin
		{
			OFFSET -2.041588 -20.007561 0.000000 
			CHANNELS 3 Xrotation Zrotation Yrotation
			JOINT lFoot
			{
				OFFSET 0.000000 -19.190928 -1.224953 
				CHANNELS 3 Xrotation Yrotation Zrotation
				End Site
				{
					OFFSET 0.000000 -2.449906 4.627600 
				}
			}
		}
	}
	JOINT rThigh
	{
		OFFSET -5.308129 -1.633274 1.361059 
		CHANNELS 3 Xrotation Zrotation Yrotation
		JOINT rShin
		{
			OFFSET 2.041588 -20.007561 0.000000 
			CHANNELS 3 Xrotation Zrotation Yrotation
			JOINT rFoot
			{
				OFFSET 0.000000 -19.190928 -1.224953 
				CHANNELS 3 Xrotation Yrotation Zrotation
				End Site
				{
					OFFSET 0.000000 -2.449906 4.627600 
				}
			}
		}
	}
}
MOTION
Frames: 18
Frame Time: 0.016667
-0.983078 42.270088 0.827791 2.155940 -4.781790 -1.888980 -23.104500 1.831090 0.354101 15.897900 -0.876003 0.471765 14.598001 5.940589 -24.763002 -0.423481 -5.657750 3.856660 2.000000 -2.000000 0.000000 5.592310 -13.844300 130.431000 72.734901 -0.255426 0.130606 0.046590 -0.024975 -145.876999 -2.000000 2.000000 0.000000 77.555199 26.280701 -159.681000 -89.902901 0.215081 0.136725 -0.080433 0.097374 -170.016998 -18.227430 0.501106 -3.853063 39.586922 2.308965 2.859126 -22.175583 2.034882 0.847000 -5.150439 11.332724 -1.481382 25.706106 -2.537856 -2.072646 -23.165466 3.928385 2.455227 
-0.908029 42.246700 0.914898 2.102970 -3.240010 -0.841929 -23.068199 1.046190 0.455848 15.936600 -1.109660 0.402149 13.632538 7.561049 -24.768024 0.150900 -6.169710 3.482140 2.000000 -2.000000 0.000000 5.416060 -14.811100 130.472000 73.574799 -0.253508 0.131187 0.048696 -0.035874 -149.841995 -2.000000 2.000000 0.000000 77.759903 25.695700 -160.082993 -90.195702 0.214415 0.117193 -0.080538 0.097535 -170.085999 -17.744482 -1.152229 -3.554708 38.215191 2.306758 2.808888 -21.410273 1.433026 0.517279 -6.502871 10.024717 -0.299427 28.822596 -2.541318 -2.253800 -24.187658 2.358602 1.751004 
-0.810537 42.210716 1.037976 2.324840 -1.327030 0.248652 -23.163200 -0.031624 0.554681 15.984600 -1.586730 0.292838 14.197084 5.459035 -24.737749 -0.559513 -5.520120 3.644470 2.000000 -2.000000 0.000000 5.317420 -15.806700 130.766006 74.600098 -0.251155 0.131857 0.061574 -0.047438 -154.119003 -2.000000 2.000000 0.000000 78.081398 25.051100 -160.044998 -90.517998 0.213701 0.117189 -0.082084 0.090090 -171.082001 -17.343397 -3.172211 -2.929035 36.707668 2.280324 2.753302 -20.470257 0.640504 0.115856 -8.296813 8.060169 -0.030591 32.448689 -2.523031 -2.458233 -24.891218 1.649678 1.365000 
-0.732005 42.163292 1.214174 2.226590 0.302506 1.437590 -22.982000 -0.964133 0.430003 16.198700 -1.947480 0.089706 13.733315 5.846732 -24.145126 -0.126529 -5.378050 3.494050 2.000000 -2.000000 0.000000 5.200810 -16.657101 130.250000 75.537598 -0.248994 0.132433 0.065994 -0.059881 -158.835999 -2.000000 2.000000 0.000000 78.198402 25.060499 -159.878998 -90.830498 0.213009 0.117181 179.906998 179.897995 7.883050 -16.502245 -4.846509 -2.254331 35.383877 2.289665 2.705652 -20.283772 -0.812073 -0.519899 -9.582264 6.298451 -0.078726 36.182522 -2.467452 -2.666325 -25.495928 0.856351 0.909867 
-0.663498 42.144402 1.313831 2.325200 1.668550 2.860970 -22.914301 -1.975700 0.400496 16.264900 -2.668290 -0.063718 13.273480 6.115568 -24.516001 -0.088774 -5.543990 3.229660 2.000000 -2.000000 0.000000 5.221100 -17.644400 129.597000 76.885300 -0.245871 0.133199 0.072029 -0.073113 -164.031006 -2.000000 2.000000 0.000000 78.354797 24.846600 -160.309006 -90.996498 0.212641 0.117175 179.914993 179.906006 7.277560 -15.911369 -6.138884 -1.659763 33.883106 2.283662 2.617277 -19.463169 -2.964069 -1.411386 -11.175994 4.823825 -0.189789 39.792465 -2.328026 -2.890637 -25.644014 -0.057404 0.361976 
-0.567804 42.167538 1.402642 2.494420 3.317170 4.597870 -22.900700 -2.999660 0.143801 16.106400 -3.193490 -0.337909 13.556170 4.784241 -24.799503 -0.594662 -5.091440 3.271260 2.000000 -2.000000 0.000000 4.879810 -18.748800 129.042007 77.969299 -0.243346 0.133762 0.077356 -0.092461 -167.947006 -2.000000 2.000000 0.000000 78.052002 24.875601 -160.192001 -91.113701 0.212381 0.117170 179.906006 179.897003 7.629140 -15.108864 -7.907285 -1.375163 32.098000 2.282978 2.536018 -18.973120 -3.990550 -1.848693 -12.893353 2.694169 -0.969695 43.399208 -2.185380 -3.102368 -25.328785 -0.496598 0.003266 
-0.536592 42.170746 1.534573 2.508880 4.819620 5.621160 -22.772301 -3.805200 0.219876 16.153700 -3.544220 -0.411393 13.329088 5.207747 -24.395372 -0.319554 -5.025740 3.251630 2.000000 -2.000000 0.000000 4.734360 -20.224800 128.106003 78.701698 -0.241635 0.134115 0.071859 -0.089411 -170.789001 -2.000000 2.000000 0.000000 77.807899 24.836700 -160.279999 -91.250397 0.212079 0.117164 179.917007 179.908005 8.029510 -14.129521 -9.240138 -0.329365 30.350912 2.280028 2.433697 -18.615557 -5.533981 -2.460970 -14.153671 0.849791 -1.036418 46.591167 -2.052706 -3.276334 -24.929396 -0.846115 -0.235152 
-0.487131 42.193619 1.647090 2.286660 5.688860 6.790110 -22.693199 -4.541580 0.119663 16.032301 -4.273800 -0.551020 12.305526 7.636837 -23.791397 0.598165 -5.530240 2.995470 2.000000 -2.000000 0.000000 4.305440 -21.720100 127.288002 79.238800 -0.240377 0.134360 0.073278 -0.091488 -171.686996 -2.000000 2.000000 0.000000 77.622101 24.826500 -160.074997 -91.279701 0.212014 0.117162 -0.082888 0.091264 -171.589996 -13.078428 -10.064819 0.047510 29.035021 2.285293 2.363835 -18.260405 -6.964558 -2.996019 -14.901853 -0.323494 -1.270012 49.124023 -1.945209 -3.410372 -24.473265 -1.016541 -0.364485 
-0.409344 42.210461 1.770180 2.281740 6.811050 8.083650 -22.582399 -5.380100 0.109629 16.027000 -5.091550 -0.652584 12.586243 6.051881 -24.712524 -0.262792 -5.259970 2.980630 2.000000 -2.000000 0.000000 4.130020 -23.097900 126.684998 79.893097 -0.238841 0.134643 -179.925995 -179.906998 7.843940 -2.000000 2.000000 0.000000 77.466003 24.865900 -160.201996 -91.318802 0.211927 0.117160 -0.081992 0.089955 -171.022995 -12.067446 -11.257934 0.149508 27.580904 2.289576 2.276441 -17.877457 -8.085890 -3.442133 -15.727363 -1.812828 -1.264970 51.273396 -1.844439 -3.511376 -25.295919 -1.713357 -0.788109 
-0.402518 42.240913 1.887539 2.543640 7.892710 9.627570 -22.531700 -6.137310 0.121750 16.120899 -5.656940 -0.763277 11.997436 7.324230 -24.229372 0.265083 -5.469080 2.847890 2.000000 -2.000000 0.000000 3.964370 -24.729799 125.984001 80.361900 -0.237739 0.134834 0.073231 -0.091421 -171.658005 -2.000000 2.000000 0.000000 76.977997 24.720301 -160.621994 -91.514099 0.211494 0.117150 -0.081564 0.089320 -170.750000 -11.189873 -12.358873 0.000427 25.834427 2.258100 2.167103 -17.176081 -9.419112 -3.855938 -16.601652 -3.180427 -1.181942 52.774220 -1.779240 -3.574935 -26.077608 -3.092364 -1.613194 
-0.384668 42.288712 2.016628 2.589500 8.858280 10.927600 -22.394199 -6.763180 -0.238159 16.157000 -6.066190 -1.019070 11.794643 8.123942 -23.688904 0.648270 -5.394130 2.894920 2.000000 -2.000000 0.000000 3.505620 -25.296600 125.681999 80.791496 -0.236728 0.135002 0.071875 -0.089433 -170.798996 -2.000000 2.000000 0.000000 76.694702 25.041500 -160.132996 -91.562897 0.211386 0.117147 -0.081245 0.088842 -170.544998 -10.206752 -13.411008 -0.494312 24.558199 2.249740 2.112392 -16.560057 -10.189783 -4.090780 -17.103968 -4.367676 -0.789582 53.804390 -1.724301 -3.615621 -27.124807 -5.007194 -2.788782 
-0.382213 42.296429 2.126842 2.879080 9.226820 12.083400 -22.311100 -7.139570 -0.295483 16.329201 -6.622720 -1.104370 12.210929 7.185400 -24.492472 0.001985 -5.262260 2.995510 2.000000 -2.000000 0.000000 3.329760 -26.400600 125.342003 81.103996 -0.235992 0.135119 0.069896 -0.086414 -169.509995 -2.000000 2.000000 0.000000 75.874702 25.168900 -160.317993 -91.943802 0.210543 0.117121 -0.081367 0.089024 -170.623001 -9.775105 -13.779197 -0.617264 23.529041 2.213775 2.047866 -16.212227 -11.223120 -4.406678 -17.888779 -4.921545 -0.403885 54.245914 -1.710575 -3.644256 -27.887239 -6.690234 -3.865429 
-0.405857 42.295532 2.238787 3.429380 9.836220 13.019600 -22.522499 -7.588130 -0.073860 16.166401 -7.205580 -1.040750 11.782055 8.315602 -24.418066 0.294026 -5.527800 2.917220 2.000000 -2.000000 0.000000 2.908600 -27.718800 125.431000 81.582603 -0.234863 0.135291 0.068286 -0.093607 -168.425995 -2.000000 2.000000 0.000000 75.571999 24.808599 -160.778000 -92.139099 0.210110 0.117106 -0.081458 0.089161 -170.681000 -9.602969 -14.371282 -0.384308 22.539061 2.181125 1.993017 -15.949624 -12.342648 -4.762589 -18.853199 -5.762051 0.385458 54.588711 -1.693985 -3.645246 -28.689140 -8.296815 -4.903239 
-0.439983 42.284603 2.343025 4.106490 10.832200 13.371600 -22.818701 -8.058750 0.309318 15.837200 -7.611130 -0.907076 11.999322 8.348039 -24.538149 0.196165 -5.497740 3.051640 2.000000 -2.000000 0.000000 2.810320 -28.412201 125.452003 82.119698 -0.233594 0.135473 0.076865 -0.091640 -167.604996 -2.000000 2.000000 0.000000 75.298599 24.662600 -161.022995 -92.490700 0.209332 0.117074 -0.081946 0.089887 -170.994003 -9.353221 -15.314211 0.231716 21.240849 2.091292 1.945606 -15.588507 -13.336128 -5.029939 -20.095308 -6.962115 1.713686 54.666485 -1.709906 -3.650849 -29.521282 -9.299058 -5.662051 
-0.519400 42.235249 2.446096 4.328920 11.082400 14.672900 -22.339500 -8.243720 -0.010991 16.584700 -7.754990 -1.134070 12.165337 9.349154 -24.631643 0.468949 -5.733920 3.186260 2.000000 -2.000000 0.000000 2.820980 -28.969700 124.836998 82.353996 -0.233040 0.135548 0.074843 -0.088133 -166.160004 -2.000000 2.000000 0.000000 74.479698 25.698400 -161.294006 -92.764099 0.208727 0.117046 -0.082330 0.090452 -171.238007 -9.212840 -15.371122 0.640021 21.014093 2.099928 1.941711 -15.706414 -14.976887 -5.623191 -20.378294 -7.350899 2.097452 54.321812 -1.742659 -3.619009 -30.569088 -9.837707 -6.240052 
-0.590077 42.212135 2.548335 4.871150 11.366100 15.406000 -22.571600 -8.454350 0.204589 16.313999 -8.200430 -1.044770 12.141321 10.035908 -24.806639 0.526220 -5.929350 3.241990 2.000000 -2.000000 0.000000 2.468180 -29.672400 125.112000 82.900902 -0.231746 0.135715 0.073257 -0.075464 -164.977997 -2.000000 2.000000 0.000000 74.157097 25.230301 -161.578003 -93.506302 0.207085 0.116957 -0.080718 0.088044 -170.203003 -9.398463 -15.617940 0.750456 20.745071 2.044753 1.948121 -15.703532 -15.712234 -5.876694 -21.071531 -7.816577 2.958820 53.527267 -1.773382 -3.579647 -31.037472 -10.874247 -7.064503 
-0.712559 42.129620 2.617165 5.465830 12.211500 16.443300 -22.942801 -9.064040 0.272079 15.597000 -8.708010 -1.035670 11.113010 13.575561 -23.855717 1.994320 -6.710640 2.999080 2.000000 -2.000000 0.000000 2.535510 -29.984501 125.444000 83.408699 -0.230543 0.135860 0.072493 -0.074012 -164.391998 -2.000000 2.000000 0.000000 74.205597 24.508900 -162.145996 -94.404701 0.205099 0.116819 -0.082841 0.091196 -171.559998 -9.401655 -16.382921 0.987250 20.249315 1.989716 1.930175 -15.684869 -16.816339 -6.276686 -21.597338 -8.864165 3.892895 52.857826 -1.846517 -3.536637 -31.798044 -11.759580 -7.824224 
-0.830155 42.121014 2.674278 6.103810 12.567400 17.047899 -23.115499 -9.260200 0.414894 15.335600 -9.025520 -0.966816 12.410897 11.260381 -25.406940 0.562078 -6.329340 3.466880 2.000000 -2.000000 0.000000 2.437780 -30.140699 125.415001 84.063004 -0.228991 0.136030 0.071521 -0.072113 -163.630997 -2.000000 2.000000 0.000000 74.040100 24.851200 -162.369995 -94.707497 0.204430 0.116766 -0.081823 0.089705 -170.916000 -9.605990 -16.653997 1.587251 19.616550 1.931993 1.915290 -15.426205 -17.891777 -6.559547 -22.165941 -9.367605 4.880758 51.973846 -1.901347 -3.489973 -32.156185 -12.097608 -8.145060 
